<svg width="52" height="52" viewBox="0 0 52 52" fill="none" xmlns="http://www.w3.org/2000/svg">
<path d="M25.9995 52C40.3589 52 51.9995 40.3594 51.9995 26C51.9995 11.6406 40.3589 0 25.9995 0C11.6401 0 -0.000488281 11.6406 -0.000488281 26C-0.000488281 40.3594 11.6401 52 25.9995 52Z" fill="#E60000"/>
<path d="M26.2079 40.4561C19.0319 40.4561 11.6479 34.4241 11.6479 24.5441C11.6479 18.0961 15.0799 11.8561 19.5519 8.11208C23.9199 4.47208 29.8479 2.18408 35.2559 2.18408C35.9839 2.18408 36.7119 2.28808 37.1279 2.39208C32.4479 3.32808 28.5999 7.80008 28.5999 12.7921C28.5999 13.0001 28.5999 13.1041 28.5999 13.2081C36.5039 15.1841 40.1439 19.8641 40.1439 26.5201C40.2479 33.1761 35.0479 40.4561 26.2079 40.4561Z" fill="white"/>
</svg>
