<svg width="20" height="20" viewBox="0 0 20 20" fill="none" xmlns="http://www.w3.org/2000/svg">
<path d="M13.916 5.04957H13.2359V4.56836C13.2359 4.41762 13.176 4.27306 13.0694 4.16647C12.9628 4.05988 12.8182 4 12.6675 4C12.5168 4 12.3722 4.05988 12.2656 4.16647C12.159 4.27306 12.0991 4.41762 12.0991 4.56836V5.04957H7.90085V4.56836C7.90085 4.41762 7.84097 4.27306 7.73438 4.16647C7.6278 4.05988 7.48323 4 7.33249 4C7.18175 4 7.03719 4.05988 6.9306 4.16647C6.82401 4.27306 6.76413 4.41762 6.76413 4.56836V5.04957H6.08399C5.53128 5.04957 5.00121 5.26914 4.61039 5.65996C4.21956 6.05078 4 6.58086 4 7.13356V14.113C4 14.6658 4.21956 15.1958 4.61039 15.5866C5.00121 15.9775 5.53128 16.197 6.08399 16.197H13.916C14.4687 16.197 14.9988 15.9775 15.3896 15.5866C15.7804 15.1958 16 14.6658 16 14.113V7.13356C16 6.58086 15.7804 6.05078 15.3896 5.65996C14.9988 5.26914 14.4687 5.04957 13.916 5.04957ZM6.08589 6.1863H6.76602V7.04642C6.76602 7.19715 6.82591 7.34172 6.93249 7.44831C7.03908 7.5549 7.18365 7.61478 7.33439 7.61478C7.48512 7.61478 7.62969 7.5549 7.73628 7.44831C7.84287 7.34172 7.90275 7.19715 7.90275 7.04642V6.1863H12.0991V7.04642C12.0991 7.19715 12.159 7.34172 12.2656 7.44831C12.3722 7.5549 12.5168 7.61478 12.6675 7.61478C12.8182 7.61478 12.9628 7.5549 13.0694 7.44831C13.176 7.34172 13.2359 7.19715 13.2359 7.04642V6.1863H13.916C14.1672 6.1863 14.4082 6.2861 14.5858 6.46375C14.7635 6.64139 14.8633 6.88233 14.8633 7.13356V8.85759H5.13672V7.13356C5.13672 6.88233 5.23652 6.64139 5.41417 6.46375C5.59182 6.2861 5.83276 6.1863 6.08399 6.1863H6.08589ZM13.916 15.0603H6.08399C5.83276 15.0603 5.59182 14.9605 5.41417 14.7829C5.23652 14.6052 5.13672 14.3643 5.13672 14.113V9.99432H14.8633V14.113C14.8633 14.3643 14.7635 14.6052 14.5858 14.7829C14.4082 14.9605 14.1672 15.0603 13.916 15.0603Z" fill="#333333" fill-opacity="0.5"/>
</svg>
