<svg width="24" height="24" viewBox="0 0 24 24" fill="none" xmlns="http://www.w3.org/2000/svg">
<path d="M3.58561 5.5H20.4144C20.6996 5.50838 20.9709 5.6254 21.1728 5.82725C21.3746 6.0291 21.4916 6.30042 21.5 6.58562V17.0986C21.4916 17.3838 21.3746 17.6551 21.1728 17.857C20.9709 18.0588 20.6996 18.1758 20.4144 18.1842H3.58562C3.30042 18.1758 3.0291 18.0588 2.82725 17.857C2.6254 17.6551 2.50838 17.3838 2.5 17.0986V6.58561C2.50838 6.30041 2.6254 6.0291 2.82725 5.82725C3.0291 5.6254 3.30041 5.50838 3.58561 5.5Z" stroke="#E60000"/>
<mask id="path-2-inside-1" fill="white">
<path d="M21.579 5.52631L13.4737 13.8421C13.0618 14.2622 12.5039 14.5076 11.9158 14.5272C11.3278 14.5468 10.7548 14.3391 10.3158 13.9474L10.2106 13.8421L2.42108 5.52631"/>
</mask>
<path d="M13.4737 13.8421L14.1878 14.5422L14.1898 14.5401L13.4737 13.8421ZM10.3158 13.9474L9.60871 14.6545L9.62878 14.6745L9.64995 14.6934L10.3158 13.9474ZM10.2106 13.8421L9.48073 14.5257L9.4919 14.5376L9.50345 14.5492L10.2106 13.8421ZM20.8629 4.82832L12.7576 13.1441L14.1898 14.5401L22.2951 6.22429L20.8629 4.82832ZM12.7596 13.142C12.5277 13.3786 12.2136 13.5167 11.8825 13.5277L11.9492 15.5266C12.7942 15.4985 13.5959 15.1459 14.1878 14.5422L12.7596 13.142ZM11.8825 13.5277C11.5514 13.5388 11.2288 13.4219 10.9817 13.2013L9.64995 14.6934C10.2807 15.2564 11.1041 15.5548 11.9492 15.5266L11.8825 13.5277ZM11.0229 13.2403L10.9177 13.135L9.50345 14.5492L9.60871 14.6545L11.0229 13.2403ZM10.9404 13.1585L3.15091 4.84267L1.69126 6.20994L9.48073 14.5257L10.9404 13.1585Z" fill="#E60000" mask="url(#path-2-inside-1)"/>
</svg>
