<svg width="20" height="20" viewBox="0 0 20 20" fill="none" xmlns="http://www.w3.org/2000/svg">
<path d="M11.4165 4C8.7271 4 6.44586 5.78994 5.68608 8.23521H4.70529C4.31577 8.23521 4 8.55126 4 8.94108C4 9.33094 4.31577 9.64695 4.70529 9.64695H5.43261C5.42555 9.7655 5.41059 9.87964 5.41059 9.99988C5.41059 10.237 5.42767 10.4757 5.45467 10.7057H4.7053C4.31578 10.7057 4.00002 11.0218 4.00002 11.4116C4.00002 11.8015 4.31578 12.1175 4.7053 12.1175H5.80732C6.66707 14.3841 8.85504 15.9998 11.4165 15.9998C13.3378 15.9998 14.6628 15.1441 15.7805 14.0256C15.8484 13.9609 15.9028 13.8833 15.9404 13.7973C15.978 13.7113 15.9981 13.6187 15.9995 13.5249C16.0009 13.4311 15.9836 13.3379 15.9486 13.2508C15.9136 13.1638 15.8617 13.0845 15.7957 13.0178C15.7298 12.9511 15.6512 12.8982 15.5646 12.8622C15.478 12.8262 15.3851 12.8079 15.2914 12.8083C15.1976 12.8087 15.1048 12.8278 15.0185 12.8644C14.9322 12.9011 14.8541 12.9546 14.7887 13.0219C13.7905 14.0209 12.9543 14.588 11.4165 14.588C9.63711 14.588 8.10309 13.589 7.33911 12.1175H11.7582C12.1477 12.1175 12.4635 11.8015 12.4635 11.4116C12.4635 11.0218 12.1477 10.7057 11.7582 10.7057H6.87627C6.84094 10.4757 6.82117 10.2401 6.82117 9.99988C6.82117 9.87875 6.83408 9.76567 6.84319 9.64695H11.7582C12.1477 9.64695 12.4634 9.33094 12.4634 8.94108C12.4634 8.55126 12.1477 8.23521 11.7582 8.23521H7.17379C7.86456 6.57525 9.49975 5.41174 11.4165 5.41174C12.9543 5.41174 13.7905 5.96785 14.7887 6.96683C14.8541 7.03418 14.9322 7.08782 15.0185 7.12458C15.1049 7.16134 15.1976 7.18049 15.2915 7.18091C15.3853 7.18133 15.4782 7.16301 15.5649 7.12703C15.6516 7.09106 15.7302 7.03814 15.7961 6.97138C15.8621 6.90462 15.9141 6.82536 15.9491 6.73823C15.9841 6.65111 16.0014 6.5579 15.9999 6.46401C15.9985 6.37013 15.9783 6.27746 15.9406 6.19147C15.9029 6.10548 15.8485 6.02787 15.7805 5.9632C14.6628 4.84461 13.3378 4 11.4165 4Z" fill="#333333" fill-opacity="0.5"/>
</svg>
