<svg id="svg" xmlns="http://www.w3.org/2000/svg" xmlns:xlink="http://www.w3.org/1999/xlink" width="400" height="278.90625" viewBox="0, 0, 400,278.90625"><g id="svgg"><path id="path0" d="M120.482 2.001 C 114.617 6.109,115.071 10.619,122.675 23.763 C 126.122 29.723,128.847 34.668,128.729 34.753 C 128.612 34.838,124.824 36.240,120.313 37.869 C 112.908 40.543,97.972 47.080,96.965 48.087 C 96.744 48.308,100.204 52.142,104.654 56.607 L 112.744 64.725 116.724 63.128 C 118.912 62.250,125.185 60.017,130.662 58.165 L 140.621 54.798 143.653 60.016 C 150.763 72.249,151.282 73.429,149.906 74.229 C 146.734 76.072,139.102 82.274,135.604 85.851 L 131.755 89.788 138.713 97.042 C 147.264 105.956,145.989 105.608,151.153 100.443 C 156.352 95.244,161.534 91.655,162.405 92.649 C 166.717 97.567,221.890 195.713,220.794 196.515 C 215.992 200.026,198.270 203.599,189.844 202.755 C 159.385 199.704,136.121 176.609,133.871 147.192 L 133.339 140.234 123.896 130.593 L 114.453 120.953 113.939 124.343 C 109.161 155.844,117.442 182.223,138.266 201.838 C 161.855 224.058,198.158 230.175,227.092 216.807 L 232.805 214.168 236.039 219.779 C 237.818 222.865,240.495 227.433,241.987 229.929 C 245.270 235.420,246.103 234.685,234.375 236.633 C 166.345 247.928,95.609 224.706,45.651 174.677 C 32.022 161.029,22.656 148.071,22.656 142.863 C 22.656 133.649,51.848 102.046,74.822 86.386 C 81.711 81.690,81.942 83.079,72.743 73.915 L 65.017 66.218 56.923 72.347 C 23.429 97.708,1.172 125.614,1.172 142.246 C 1.172 166.737,45.979 211.757,94.347 235.864 C 143.017 260.122,200.788 267.440,250.111 255.595 L 256.082 254.161 261.830 264.277 C 269.570 277.898,273.225 280.648,279.891 277.863 C 287.158 274.827,287.372 269.106,280.654 257.430 C 277.964 252.753,276.030 248.682,276.358 248.385 C 276.685 248.088,281.172 246.175,286.328 244.134 C 339.303 223.172,399.618 169.138,399.607 142.652 C 399.597 116.814,343.180 65.103,290.625 42.761 C 248.174 24.715,184.576 18.631,149.994 29.309 C 149.147 29.570,146.839 26.208,141.801 17.376 C 132.972 1.895,131.938 0.781,126.406 0.781 C 123.880 0.781,121.533 1.264,120.482 2.001 M231.956 48.390 C 289.686 58.203,352.189 97.254,376.104 138.451 L 378.244 142.137 375.745 146.825 C 367.325 162.623,342.017 187.271,317.474 203.578 C 299.423 215.571,265.413 231.163,263.735 228.215 C 263.340 227.521,259.913 221.571,256.119 214.994 L 249.222 203.035 254.983 196.364 C 305.788 137.543,253.389 47.584,177.443 63.242 C 172.986 64.161,169.251 64.809,169.144 64.683 C 165.999 60.993,161.186 50.333,162.454 49.864 C 163.740 49.388,176.102 47.525,184.375 46.560 C 192.271 45.640,222.646 46.808,231.956 48.390 M212.109 85.484 C 252.238 99.093,267.568 149.714,240.826 180.312 L 237.891 183.671 209.479 134.466 C 193.853 107.404,181.021 84.978,180.964 84.631 C 180.518 81.935,203.501 82.565,212.109 85.484 " stroke="none" fill="#000000" fill-rule="evenodd"></path></g></svg>