<svg width="24" height="24" viewBox="0 0 24 24" fill="none" xmlns="http://www.w3.org/2000/svg">
<path fill-rule="evenodd" clip-rule="evenodd" d="M4.30292 0.702944C4.75301 0.252856 5.36346 0 5.99998 0H15C15.1591 0 15.3117 0.0632141 15.4242 0.175736L20.2242 4.97574C20.3368 5.08826 20.4 5.24087 20.4 5.4V21.6C20.4 22.2365 20.1471 22.847 19.697 23.2971C19.2469 23.7471 18.6365 24 18 24H5.99998C5.36346 24 4.75301 23.7471 4.30292 23.2971C3.85283 22.847 3.59998 22.2365 3.59998 21.6V2.4C3.59998 1.76348 3.85283 1.15303 4.30292 0.702944ZM5.99998 1.2C5.68172 1.2 5.37649 1.32643 5.15145 1.55147C4.9264 1.77652 4.79998 2.08174 4.79998 2.4V21.6C4.79998 21.9183 4.9264 22.2235 5.15145 22.4485C5.37649 22.6736 5.68172 22.8 5.99998 22.8H18C18.3182 22.8 18.6235 22.6736 18.8485 22.4485C19.0735 22.2235 19.2 21.9183 19.2 21.6V5.64853L14.7514 1.2H5.99998Z" fill="#333333"/>
<path fill-rule="evenodd" clip-rule="evenodd" d="M14.4 5.39999V0.634491H15.6V4.79999H19.8V5.99999H15C14.6687 5.99999 14.4 5.73136 14.4 5.39999Z" fill="#333333"/>
<path d="M12.6624 9C10.6453 9 8.93437 10.3425 8.36453 12.1765H7.62894C7.3368 12.1765 7.09998 12.4135 7.09998 12.7059C7.09998 12.9983 7.3368 13.2353 7.62894 13.2353H8.17444C8.16914 13.3242 8.15792 13.4098 8.15792 13.5C8.15792 13.6779 8.17073 13.8569 8.19098 14.0294H7.62895C7.33681 14.0294 7.09999 14.2665 7.09999 14.5588C7.09999 14.8512 7.33681 15.0882 7.62895 15.0882H8.45546C9.10028 16.7882 10.7413 18 12.6624 18C14.1033 18 15.0971 17.3583 15.9354 16.5193C15.9863 16.4708 16.0271 16.4126 16.0553 16.3481C16.0835 16.2836 16.0985 16.2142 16.0996 16.1438C16.1006 16.0734 16.0877 16.0036 16.0614 15.9383C16.0352 15.873 15.9962 15.8135 15.9468 15.7635C15.8973 15.7134 15.8384 15.6738 15.7734 15.6468C15.7085 15.6198 15.6388 15.6061 15.5685 15.6064C15.4982 15.6066 15.4286 15.621 15.3639 15.6485C15.2991 15.676 15.2405 15.7161 15.1915 15.7665C14.4429 16.5158 13.8157 16.9412 12.6624 16.9412C11.3278 16.9412 10.1773 16.1919 9.60431 15.0882H12.9186C13.2107 15.0882 13.4476 14.8512 13.4476 14.5588C13.4476 14.2665 13.2107 14.0294 12.9186 14.0294H9.25717C9.23068 13.8569 9.21585 13.6802 9.21585 13.5C9.21585 13.4092 9.22554 13.3243 9.23237 13.2353H12.9186C13.2107 13.2353 13.4476 12.9983 13.4476 12.7059C13.4476 12.4135 13.2107 12.1765 12.9186 12.1765H9.48032C9.99839 10.9315 11.2248 10.0588 12.6624 10.0588C13.8157 10.0588 14.4429 10.4759 15.1915 11.2252C15.2405 11.2757 15.2991 11.3159 15.3639 11.3435C15.4286 11.371 15.4982 11.3854 15.5686 11.3857C15.6389 11.386 15.7087 11.3723 15.7737 11.3453C15.8386 11.3183 15.8976 11.2786 15.9471 11.2286C15.9966 11.1785 16.0356 11.1191 16.0618 11.0537C16.0881 10.9884 16.101 10.9185 16.0999 10.848C16.0988 10.7776 16.0837 10.7081 16.0554 10.6436C16.0272 10.5791 15.9864 10.5209 15.9353 10.4724C15.0971 9.63347 14.1033 9 12.6624 9V9Z" fill="#333333"/>
</svg>
