<svg width="24" height="24" viewBox="0 0 24 24" fill="none" xmlns="http://www.w3.org/2000/svg">
<mask id="path-1-inside-1" fill="white">
<path d="M12 12.5759V18.8586Z"/>
</mask>
<path d="M11 12.5759V18.8586H13V12.5759H11Z" fill="#E60000" mask="url(#path-1-inside-1)"/>
<path d="M5.60652 9.93457H18.3935C18.687 9.94297 18.9646 10.0612 19.1697 10.2626C19.3745 10.4636 19.4916 10.7319 19.5 11.0121V20.4225C19.4916 20.7026 19.3745 20.971 19.1697 21.172C18.9646 21.3733 18.6871 21.4916 18.3935 21.5H5.60651C5.31295 21.4916 5.03541 21.3733 4.83028 21.172C4.62552 20.971 4.50843 20.7026 4.5 20.4225V11.0121C4.50843 10.7319 4.62552 10.4636 4.83028 10.2626C5.03541 10.0612 5.31296 9.94297 5.60652 9.93457Z" stroke="#E60000"/>
<mask id="path-4-inside-2" fill="white">
<path d="M7.19999 9.43458V6.71207C7.19731 6.09254 7.31964 5.47863 7.55991 4.90575C7.80018 4.33287 8.15365 3.81237 8.5999 3.37429C9.04616 2.93622 9.57637 2.58923 10.1599 2.35336C10.7435 2.11749 11.3689 1.99741 12 2.00004C12.6311 1.99741 13.2565 2.11749 13.84 2.35336C14.4236 2.58923 14.9538 2.93622 15.4001 3.37429C15.8463 3.81237 16.1998 4.33287 16.4401 4.90575C16.6803 5.47863 16.8027 6.09254 16.8 6.71207V9.43458"/>
</mask>
<path d="M7.19999 6.71207L8.2 6.71207L8.19998 6.70775L7.19999 6.71207ZM12 2.00004L11.9958 3.00007L12.0042 3.00003L12 2.00004ZM16.8 6.71207L15.8 6.70775V6.71207H16.8ZM8.19999 9.43458V6.71207H6.19999V9.43458H8.19999ZM8.19998 6.70775C8.19789 6.22286 8.2936 5.74193 8.48209 5.29252L6.63774 4.51898C6.34568 5.21533 6.19674 5.96223 6.2 6.7164L8.19998 6.70775ZM8.48209 5.29252C8.67059 4.84307 8.94841 4.43349 9.30044 4.08791L7.89937 2.66068C7.35889 3.19125 6.92978 3.82267 6.63774 4.51898L8.48209 5.29252ZM9.30044 4.08791C9.65251 3.74229 10.0718 3.46757 10.5347 3.2805L9.78522 1.42623C9.08091 1.7109 8.43981 2.13014 7.89937 2.66068L9.30044 4.08791ZM10.5347 3.2805C10.9975 3.09341 11.4942 2.99794 11.9958 3.00003L12.0042 1.00005C11.2436 0.996878 10.4895 1.14157 9.78522 1.42623L10.5347 3.2805ZM12.0042 3.00003C12.5058 2.99794 13.0024 3.09341 13.4653 3.2805L14.2148 1.42623C13.5105 1.14157 12.7564 0.996878 11.9958 1.00005L12.0042 3.00003ZM13.4653 3.2805C13.9282 3.46757 14.3475 3.74229 14.6995 4.08791L16.1006 2.66068C15.5602 2.13014 14.9191 1.7109 14.2148 1.42623L13.4653 3.2805ZM14.6995 4.08791C15.0516 4.43349 15.3294 4.84307 15.5179 5.29252L17.3623 4.51898C17.0702 3.82267 16.6411 3.19125 16.1006 2.66068L14.6995 4.08791ZM15.5179 5.29252C15.7064 5.74193 15.8021 6.22286 15.8 6.70775L17.8 6.7164C17.8032 5.96223 17.6543 5.21533 17.3623 4.51898L15.5179 5.29252ZM15.8 6.71207V9.43458H17.8V6.71207H15.8Z" fill="#E60000" mask="url(#path-4-inside-2)"/>
</svg>
