<svg width="20" height="20" viewBox="0 0 20 20" fill="none" xmlns="http://www.w3.org/2000/svg">
<path d="M8.41676 4.0012C8.38841 4.00251 8.3603 4.0089 8.33417 4.01997L4.12934 5.94218C3.99417 6.00371 3.96202 6.20048 4.04674 6.31761L5.35324 7.84562L4.04674 9.36987C3.96812 9.4803 3.99417 9.68377 4.12934 9.7453L5.43209 10.3422V13.1317C5.43278 13.2234 5.49096 13.3122 5.57475 13.3494L9.89596 15.2716C9.95719 15.2989 10.0299 15.2989 10.0912 15.2716L14.4199 13.3494C14.5037 13.3122 14.5619 13.2234 14.5626 13.1317V10.3422L15.8653 9.7453C16.0005 9.68377 16.0448 9.48245 15.9479 9.36987L14.6414 7.84562L15.9479 6.31761C16.0448 6.20503 16.0005 6.00371 15.8653 5.94218L11.6605 4.01997C11.6229 4.00361 11.5811 3.99708 11.5403 4.0012C11.4809 4.00552 11.4235 4.03288 11.3827 4.07629L9.99732 5.56675L8.61199 4.07629C8.56264 4.02367 8.48865 3.99522 8.41676 4.0012ZM8.37922 4.53056L9.59186 5.83706L5.73994 7.55278L4.62115 6.25003L8.37922 4.53056ZM11.6154 4.53056L15.3735 6.25003L14.2547 7.55278L10.4028 5.83706L11.6154 4.53056ZM9.99732 6.18621L13.7291 7.84562L9.99732 9.50128L6.26554 7.84562L9.99732 6.18621ZM5.73994 8.1347L9.59186 9.85042L8.37922 11.1569L4.62115 9.43745L5.73994 8.1347ZM14.2547 8.1347L15.3735 9.43745L11.6154 11.1569L10.4028 9.85042L14.2547 8.1347ZM9.75705 10.3798V14.6822L5.91264 12.974V10.56L8.33417 11.6675C8.42599 11.7097 8.54384 11.6858 8.61199 11.6112L9.75705 10.3798ZM10.2376 10.3798L11.3827 11.6112C11.4508 11.6858 11.5687 11.7097 11.6605 11.6675L14.082 10.56V12.974L10.2376 14.6785V10.3798Z" fill="#333333" fill-opacity="0.5"/>
<path d="M9.99732 5.45659L11.3277 4.02523L11.328 4.02492C11.3815 3.96806 11.456 3.9324 11.5339 3.92648C11.5871 3.92128 11.6414 3.92986 11.6904 3.95121L11.6917 3.95175L11.6917 3.95176L15.8964 5.87392C15.8964 5.87392 15.8964 5.87393 15.8964 5.87393L9.99732 5.45659ZM9.99732 5.45659L8.66692 4.02523L8.66669 4.02498C8.60199 3.956 8.50618 3.91894 8.41192 3.92635L9.99732 5.45659ZM15.8964 9.81353C15.8964 9.81354 15.8964 9.81355 15.8964 9.81356L14.6376 10.3904V13.1317V13.1323C14.6366 13.2534 14.5611 13.3688 14.4504 13.418L14.4503 13.418L10.1217 15.3402C10.1216 15.3402 10.1216 15.3402 10.1216 15.3402C10.041 15.376 9.94611 15.376 9.86549 15.3402L9.86548 15.3402L5.54428 13.418L5.54427 13.418L5.57475 13.3494C5.49096 13.3122 5.43278 13.2234 5.43209 13.1317L15.8964 9.81353ZM15.8964 9.81353L15.8966 9.81349L15.8653 9.7453L15.8964 9.81353ZM9.68205 10.5706L8.66737 11.6618C8.66729 11.6619 8.66722 11.6619 8.66714 11.662C8.57696 11.7606 8.42421 11.7914 8.30284 11.7357M9.68205 10.5706L8.33417 11.6675M9.68205 10.5706V14.5668V10.5706ZM8.30284 11.7357L8.33417 11.6675M8.30284 11.7357L8.30297 11.7357L8.33417 11.6675M8.30284 11.7357L5.98764 10.6768M8.33417 11.6675L5.98764 10.5943V10.6768M5.98764 10.6768V12.9253M5.98764 10.6768L5.91264 10.6425V12.974M5.98764 12.9253V12.974H5.91264M5.98764 12.9253L5.94309 12.9055L5.91264 12.974M5.98764 12.9253L5.91264 12.974M10.3126 14.5632L14.007 12.9252V10.6768L11.6918 11.7357L11.6917 11.7357L11.6605 11.6675L10.3126 14.5632ZM10.3126 14.5632V10.5706L11.3273 11.6618C11.3274 11.6619 11.3275 11.662 11.3275 11.6621L10.3126 14.5632ZM3.93416 9.58976C3.95085 9.67869 4.00234 9.76981 4.0981 9.81349L4.09827 5.87392L4.12933 5.94217L4.09816 5.87397L4.09821 5.87395C4.0039 5.91691 3.94997 6.00491 3.93205 6.0943C3.9142 6.18332 3.92968 6.28374 3.98598 6.36157L3.98578 6.36171L3.98974 6.36635L5.25452 7.84556L3.9898 9.32106L3.98957 9.32086L3.98565 9.32637C3.93236 9.40122 3.91756 9.50134 3.93416 9.58976ZM4.74298 6.27677L8.36113 4.62132L9.46555 5.81122L5.76045 7.46154L4.74298 6.27677ZM10.5291 5.81122L11.6335 4.62132L15.2517 6.27677L14.2342 7.46154L10.5291 5.81122ZM6.4503 7.84554L9.99732 6.26829L13.5443 7.84554L9.99732 9.41923L6.4503 7.84554ZM8.36113 11.0662L4.74298 9.41071L5.76045 8.22593L9.46555 9.87627L8.36113 11.0662ZM10.5291 9.87627L14.2342 8.22593L15.2517 9.41071L11.6335 11.0662L10.5291 9.87627Z" stroke="#333333" stroke-opacity="0.5" stroke-width="0.15"/>
</svg>
