<svg width="20" height="20" viewBox="0 0 20 20" fill="none" xmlns="http://www.w3.org/2000/svg">
<path d="M13.4883 7.29361C13.4883 7.52523 13.4883 7.75826 13.4883 7.98988C13.4883 8.54802 13.4883 9.10476 13.4883 9.6629C13.4883 10.3369 13.4883 11.0122 13.4883 11.6862C13.4883 12.2694 13.4883 12.8527 13.4883 13.4359C13.4883 13.7192 13.4814 14.0024 13.4883 14.2857C13.4883 14.2899 13.4883 14.2941 13.4883 14.2968C13.5581 14.1768 13.6265 14.0555 13.6963 13.9355C13.2344 14.262 12.7725 14.5871 12.3107 14.9136C12.2451 14.9596 12.1795 15.0057 12.1139 15.0517C12.2549 15.0517 12.3958 15.0517 12.5367 15.0517C12.0749 14.7252 11.613 14.4001 11.1511 14.0736C11.0856 14.0275 11.02 13.9815 10.9544 13.9355C10.8428 13.8559 10.6432 13.8559 10.5316 13.9355C10.0698 14.262 9.60789 14.5871 9.14603 14.9136C9.08045 14.9596 9.01487 15.0057 8.94929 15.0517C9.09022 15.0517 9.23115 15.0517 9.37208 15.0517C8.91162 14.7266 8.45115 14.4015 7.98929 14.075C7.92371 14.0289 7.85813 13.9829 7.79255 13.9368C7.68092 13.8573 7.48139 13.8573 7.36976 13.9368C6.9079 14.2634 6.44604 14.5885 5.98418 14.915C5.9186 14.961 5.85302 15.0071 5.78744 15.0531C5.92837 15.0531 6.0693 15.0531 6.21023 15.0531C5.74837 14.7266 5.28651 14.4015 4.82465 14.075C4.75907 14.0289 4.69349 13.9829 4.62791 13.9368C4.69767 14.0568 4.76604 14.1782 4.83581 14.2982C4.83581 13.9955 4.83581 13.6913 4.83581 13.3885C4.83581 12.6615 4.83581 11.9345 4.83581 11.2062C4.83581 10.3299 4.83581 9.45221 4.83581 8.57593C4.83581 7.82384 4.83581 7.07314 4.83581 6.32105C4.83581 5.96942 4.83302 5.6164 4.83581 5.26477C4.83581 5.22291 4.8386 5.18245 4.84418 5.14198C4.8386 5.17966 4.83442 5.21594 4.82884 5.25361C4.84 5.17966 4.85953 5.1085 4.88884 5.03873C4.87488 5.07222 4.86093 5.10571 4.84697 5.13919C4.86651 5.09454 4.88884 5.05129 4.91674 5.01082C4.92372 5.00105 4.9307 4.99129 4.93767 4.98152C4.96977 4.93408 4.90697 5.02478 4.90558 5.02338C4.90279 5.02059 4.95721 4.96617 4.96 4.96338C4.97674 4.94664 4.99628 4.93129 5.01302 4.91454C5.04372 4.88245 4.93349 4.97036 4.97116 4.94664C4.98093 4.93966 4.9907 4.93268 5.00046 4.92571C5.04372 4.8964 5.08976 4.87268 5.13721 4.85175C5.10372 4.86571 5.07023 4.87966 5.03674 4.89361C5.10651 4.86431 5.17767 4.84478 5.25162 4.83361C5.21395 4.83919 5.17767 4.84338 5.14 4.84896C5.21674 4.83919 5.29209 4.83919 5.36883 4.84896C5.33116 4.84338 5.29488 4.83919 5.25721 4.83361C5.33116 4.84478 5.40093 4.86431 5.4693 4.89222C5.43581 4.87826 5.40232 4.86431 5.36883 4.85036C5.41488 4.87129 5.45953 4.89361 5.50279 4.92152C5.51535 4.92989 5.52651 4.93687 5.53767 4.94664C5.48465 4.90478 5.47069 4.89361 5.49581 4.91454C5.51395 4.93129 5.53348 4.94664 5.55162 4.96478C5.56697 4.98012 5.58093 4.99687 5.59488 5.01222C5.62279 5.04571 5.61302 5.03315 5.56976 4.97733C5.57814 4.9885 5.58651 5.00105 5.59488 5.01222C5.62279 5.05408 5.64511 5.09873 5.66604 5.14617C5.65209 5.11268 5.63814 5.07919 5.62418 5.04571C5.65209 5.11408 5.67162 5.18524 5.68279 5.2578C5.67721 5.22012 5.67302 5.18384 5.66744 5.14617C5.68279 5.26896 5.67441 5.39594 5.67441 5.51873C5.67441 5.73222 5.67441 5.9457 5.67441 6.16059C5.67441 6.36291 5.67441 6.56524 5.67441 6.76756C5.67441 6.97268 5.67302 7.17779 5.79441 7.35779C5.9479 7.58802 6.19209 7.715 6.46837 7.715C6.52418 7.715 6.58139 7.715 6.6372 7.715C6.88278 7.715 7.12976 7.715 7.37534 7.715C7.75069 7.715 8.12604 7.715 8.50138 7.715C8.95069 7.715 9.39859 7.715 9.84789 7.715C10.3084 7.715 10.7688 7.715 11.2293 7.715C11.6451 7.715 12.0623 7.715 12.4781 7.715C12.7935 7.715 13.1102 7.715 13.4256 7.715C13.579 7.715 13.7339 7.7164 13.8874 7.715C13.8944 7.715 13.9014 7.715 13.9083 7.715C14.1274 7.715 14.3367 7.52244 14.327 7.2964C14.3172 7.06896 14.1428 6.87779 13.9083 6.87779C13.66 6.87779 13.4116 6.87779 13.1632 6.87779C12.5646 6.87779 11.9674 6.87779 11.3688 6.87779C10.6488 6.87779 9.92882 6.87779 9.20882 6.87779C8.5879 6.87779 7.96697 6.87779 7.34743 6.87779C7.04883 6.87779 6.75162 6.88058 6.45302 6.87779C6.43767 6.87779 6.42092 6.8764 6.40558 6.8764C6.44325 6.88198 6.47953 6.88617 6.5172 6.89175C6.48651 6.88756 6.4572 6.88058 6.4279 6.86942C6.46139 6.88338 6.49488 6.89733 6.52837 6.91128C6.52278 6.90849 6.46278 6.88058 6.46418 6.87779C6.46697 6.87361 6.55767 6.96151 6.49348 6.89872C6.45302 6.85826 6.4879 6.85965 6.51441 6.92803C6.50604 6.9071 6.49069 6.88617 6.48092 6.86384C6.49488 6.89733 6.50883 6.93082 6.52278 6.96431C6.51162 6.935 6.50465 6.9057 6.50046 6.875C6.50604 6.91268 6.51023 6.94896 6.51581 6.98663C6.49906 6.78151 6.51441 6.57082 6.51441 6.36431C6.51441 6.05314 6.51441 5.74198 6.51441 5.43222C6.51441 5.36663 6.51581 5.30245 6.51441 5.23687C6.50465 4.88664 6.34976 4.53082 6.07488 4.30757C5.92558 4.18617 5.76093 4.08989 5.57116 4.04385C5.38 3.99641 5.19581 3.9992 5.00465 4.03129C4.6893 4.08571 4.42139 4.28664 4.23442 4.5378C4.06558 4.75687 4 5.03175 4 5.30524C4 5.4071 4 5.50896 4 5.61222C4 6.0378 4 6.46338 4 6.89035C4 7.50709 4 8.12384 4 8.73918C4 9.4229 4 10.1052 4 10.7889C4 11.4057 4 12.021 4 12.6378C4 13.0689 4 13.5001 4 13.9313C4 14.0359 4 14.1406 4 14.2452C4 14.262 4 14.2801 4 14.2968C4.00419 14.4587 4.08372 14.5717 4.21209 14.6638C4.23163 14.6778 4.25256 14.6917 4.27209 14.7057C4.73674 15.0336 5.2 15.3601 5.66325 15.688C5.70511 15.7173 5.74697 15.7466 5.78744 15.7759C5.89907 15.8554 6.0986 15.8554 6.21023 15.7759C6.67209 15.4494 7.13395 15.1243 7.59581 14.7978C7.66139 14.7517 7.72697 14.7057 7.79255 14.6596C7.65162 14.6596 7.51069 14.6596 7.36976 14.6596C7.83162 14.9861 8.29348 15.3113 8.75534 15.6378C8.82092 15.6838 8.8865 15.7299 8.95208 15.7759C9.06371 15.8554 9.26324 15.8554 9.37487 15.7759C9.83673 15.4494 10.2986 15.1243 10.7604 14.7978C10.826 14.7517 10.8916 14.7057 10.9572 14.6596C10.8163 14.6596 10.6753 14.6596 10.5344 14.6596C10.9963 14.9861 11.4581 15.3113 11.92 15.6378C11.9856 15.6838 12.0511 15.7299 12.1167 15.7759C12.2284 15.8554 12.4279 15.8554 12.5395 15.7759C13.053 15.4131 13.5665 15.0503 14.08 14.6889C14.0911 14.682 14.1009 14.6736 14.1121 14.6666C14.2251 14.5857 14.3018 14.4964 14.32 14.3554C14.3242 14.322 14.327 14.308 14.327 14.2801C14.3283 14.2299 14.327 14.1796 14.327 14.1294C14.327 13.902 14.327 13.6745 14.327 13.4471C14.327 12.6727 14.327 11.8982 14.327 11.1238C14.327 10.2978 14.327 9.47314 14.327 8.64709C14.327 8.20198 14.3325 7.75826 14.327 7.31314C14.327 7.30616 14.327 7.30058 14.327 7.29361C14.327 7.07454 14.1344 6.86524 13.9083 6.875C13.6795 6.88477 13.4883 7.05919 13.4883 7.29361Z" fill="#939393"/>
<path d="M15.1628 5.25643C15.1628 5.75457 15.1628 6.25271 15.1628 6.74945C15.1628 6.82619 15.167 6.90573 15.1614 6.98247C15.167 6.9448 15.1712 6.90852 15.1768 6.87085C15.1726 6.90154 15.1656 6.93085 15.1544 6.96015C15.1684 6.92666 15.1823 6.89317 15.1963 6.85968C15.1935 6.86526 15.1656 6.92526 15.1628 6.92387C15.1586 6.92108 15.2465 6.83038 15.1837 6.89457C15.1433 6.93503 15.1447 6.90015 15.213 6.87364C15.1921 6.88201 15.1712 6.89736 15.1488 6.90712C15.1823 6.89317 15.2158 6.87922 15.2493 6.86526C15.22 6.87643 15.1907 6.8834 15.16 6.88759C15.1977 6.88201 15.234 6.87782 15.2716 6.87224C15.1837 6.87922 15.093 6.87364 15.0051 6.87364C14.7916 6.87364 14.5781 6.87364 14.3633 6.87364C13.6614 6.87364 12.9609 6.87364 12.2591 6.87364C11.4107 6.87364 10.561 6.87364 9.71258 6.87364C8.98002 6.87364 8.24747 6.87364 7.51491 6.87364C7.16189 6.87364 6.80887 6.87643 6.45724 6.87364C6.4405 6.87364 6.42375 6.87364 6.40701 6.87224C6.44468 6.87782 6.48096 6.88201 6.51863 6.88759C6.48794 6.8834 6.45863 6.87643 6.42933 6.86526C6.46282 6.87922 6.49631 6.89317 6.5298 6.90712C6.52422 6.90433 6.46422 6.87643 6.46561 6.87364C6.4684 6.86945 6.5591 6.95736 6.49491 6.89457C6.45445 6.8541 6.48933 6.8555 6.51584 6.92387C6.50747 6.90294 6.49212 6.88201 6.48236 6.85968C6.49631 6.89317 6.51026 6.92666 6.52422 6.96015C6.51305 6.93085 6.50608 6.90154 6.50189 6.87085C6.50747 6.90852 6.51166 6.9448 6.51724 6.98247C6.50887 6.87782 6.51584 6.77038 6.51584 6.66433C6.51584 6.45364 6.51584 6.24154 6.51584 6.03085C6.51584 5.8355 6.51584 5.64155 6.51584 5.4462C6.51584 5.26899 6.51863 5.09597 6.47119 4.92294C6.3177 4.38015 5.81398 4.0076 5.25585 4.00062C5.25585 4.27969 5.25585 4.55876 5.25585 4.83783C5.34096 4.83783 5.42608 4.83783 5.51119 4.83783C5.74422 4.83783 5.97724 4.83783 6.21166 4.83783C6.55491 4.83783 6.89817 4.83783 7.24142 4.83783C7.66003 4.83783 8.07724 4.83783 8.49584 4.83783C8.95351 4.83783 9.40979 4.83783 9.86746 4.83783C10.3307 4.83783 10.794 4.83783 11.2558 4.83783C11.6842 4.83783 12.1126 4.83783 12.5395 4.83783C12.8995 4.83783 13.2595 4.83783 13.6182 4.83783C13.8749 4.83783 14.1316 4.83783 14.3884 4.83783C14.5028 4.83783 14.6186 4.83783 14.733 4.83783C14.7749 4.83783 14.8168 4.84062 14.8572 4.8462C14.8195 4.84062 14.7833 4.83643 14.7456 4.83085C14.8195 4.84201 14.8907 4.86155 14.9605 4.89085C14.927 4.8769 14.8935 4.86294 14.86 4.84899C14.9047 4.86853 14.9479 4.89085 14.9884 4.91876C14.9981 4.92573 15.0079 4.93271 15.0177 4.93969C15.0651 4.97178 14.9744 4.90899 14.9758 4.90759C14.9786 4.9048 15.033 4.95922 15.0358 4.96201C15.0526 4.97876 15.0679 4.99829 15.0847 5.01504C15.1168 5.04573 15.0288 4.9355 15.0526 4.97318C15.0595 4.98294 15.0665 4.99271 15.0735 5.00248C15.1028 5.04573 15.1265 5.09178 15.1475 5.13922C15.1335 5.10573 15.1195 5.07225 15.1056 5.03876C15.1349 5.10852 15.1544 5.17969 15.1656 5.25364C15.16 5.21597 15.1558 5.17969 15.1502 5.14201C15.16 5.17969 15.1628 5.21736 15.1628 5.25643C15.1656 5.4755 15.354 5.6848 15.5814 5.67503C15.8061 5.66527 16.0028 5.49085 16 5.25643C15.9944 4.80573 15.7474 4.36481 15.3428 4.15271C15.1488 4.05085 14.9395 4.00062 14.7205 4.00062C14.5726 4.00062 14.4247 4.00062 14.2768 4.00062C13.9768 4.00062 13.6754 4.00062 13.3754 4.00062C12.9637 4.00062 12.5521 4.00062 12.1405 4.00062C11.6661 4.00062 11.1916 4.00062 10.7158 4.00062C10.2205 4.00062 9.72374 4.00062 9.2284 4.00062C8.75537 4.00062 8.28235 4.00062 7.80933 4.00062C7.40328 4.00062 6.99584 4.00062 6.5898 4.00062C6.29398 4.00062 5.99678 4.00062 5.70096 4.00062C5.55864 4.00062 5.41631 3.99922 5.27399 4.00062C5.2684 4.00062 5.26143 4.00062 5.25585 4.00062C5.03678 4.00062 4.82748 4.19318 4.83724 4.41922C4.84701 4.64806 5.02143 4.83504 5.25585 4.83783C5.29352 4.83783 5.3312 4.84062 5.36887 4.8448C5.3312 4.83922 5.29492 4.83504 5.25724 4.82946C5.3312 4.84062 5.40096 4.86015 5.46933 4.88806C5.43585 4.87411 5.40236 4.86015 5.36887 4.8462C5.41492 4.86713 5.45957 4.88946 5.50282 4.91736C5.51538 4.92573 5.52654 4.93271 5.53771 4.94248C5.48468 4.90062 5.47073 4.88946 5.49585 4.91039C5.51399 4.92713 5.53352 4.94248 5.55166 4.96062C5.56701 4.97597 5.58096 4.99271 5.59492 5.00806C5.62282 5.04155 5.61306 5.02899 5.5698 4.97318C5.57817 4.98434 5.58654 4.9969 5.59492 5.00806C5.62282 5.04992 5.64515 5.09457 5.66608 5.14201C5.65212 5.10852 5.63817 5.07504 5.62422 5.04155C5.65212 5.10992 5.67166 5.18108 5.68282 5.25364C5.67724 5.21597 5.67305 5.17969 5.66747 5.14201C5.69119 5.33178 5.67445 5.53131 5.67445 5.72248C5.67445 6.01968 5.67445 6.31689 5.67445 6.6155C5.67445 6.71038 5.67445 6.80387 5.67445 6.89875C5.67445 7.11085 5.73585 7.29922 5.87538 7.46108C6.03584 7.64666 6.27166 7.71224 6.50747 7.71224C6.77259 7.71224 7.0377 7.71224 7.30282 7.71224C7.7884 7.71224 8.27258 7.71224 8.75816 7.71224C9.36235 7.71224 9.96793 7.71224 10.5721 7.71224C11.1916 7.71224 11.8112 7.71224 12.4293 7.71224C12.9582 7.71224 13.4856 7.71224 14.0144 7.71224C14.3521 7.71224 14.6912 7.71224 15.0288 7.71224C15.093 7.71224 15.1572 7.71224 15.2228 7.71224C15.6651 7.70805 16 7.35364 16 6.91689C16 6.41178 16 5.90806 16 5.40294C16 5.35411 16 5.30527 16 5.25643C16 5.03736 15.8074 4.82806 15.5814 4.83783C15.354 4.84759 15.1628 5.02201 15.1628 5.25643Z" fill="#939393"/>
<path d="M6.20458 10.0564C6.39993 10.0564 6.59527 10.0564 6.79202 10.0564C7.26364 10.0564 7.73667 10.0564 8.20829 10.0564C8.77759 10.0564 9.3469 10.0564 9.9162 10.0564C10.4088 10.0564 10.8999 10.0564 11.3925 10.0564C11.6325 10.0564 11.8725 10.062 12.1111 10.0564C12.1139 10.0564 12.1181 10.0564 12.1208 10.0564C12.3399 10.0564 12.5492 9.86387 12.5394 9.63782C12.5297 9.41038 12.3553 9.21922 12.1208 9.21922C11.9255 9.21922 11.7301 9.21922 11.5334 9.21922C11.0618 9.21922 10.5888 9.21922 10.1171 9.21922C9.54783 9.21922 8.97852 9.21922 8.40922 9.21922C7.91667 9.21922 7.4255 9.21922 6.93295 9.21922C6.69295 9.21922 6.45295 9.21364 6.21434 9.21922C6.21155 9.21922 6.20737 9.21922 6.20458 9.21922C5.98551 9.21922 5.77621 9.41177 5.78597 9.63782C5.79574 9.86526 5.97016 10.0564 6.20458 10.0564Z" fill="#939393"/>
<path d="M6.20458 12.1215C6.63992 12.1215 7.07667 12.1215 7.51202 12.1215C8.20132 12.1215 8.89062 12.1215 9.57852 12.1215C9.73759 12.1215 9.89666 12.1215 10.0543 12.1215C10.2734 12.1215 10.4827 11.929 10.4729 11.7029C10.4632 11.4755 10.2888 11.2843 10.0543 11.2843C9.61899 11.2843 9.18224 11.2843 8.7469 11.2843C8.0576 11.2843 7.3683 11.2843 6.68039 11.2843C6.52132 11.2843 6.36225 11.2843 6.20458 11.2843C5.98551 11.2843 5.77621 11.4769 5.78597 11.7029C5.79574 11.9303 5.97016 12.1215 6.20458 12.1215Z" fill="#939393"/>
</svg>
