<svg width="24" height="24" viewBox="0 0 24 24" fill="none" xmlns="http://www.w3.org/2000/svg">
<path fill-rule="evenodd" clip-rule="evenodd" d="M20.2903 2.50001C20.5143 2.49929 20.7362 2.54285 20.9434 2.6282C21.1509 2.71369 21.3396 2.83944 21.4985 2.99822C21.6575 3.15701 21.7836 3.34571 21.8696 3.55348C21.9557 3.76125 22 3.98403 22 4.20902C22 4.69865 21.7681 5.04859 21.5999 5.29949L13.8044 17.254C13.7897 17.2891 13.7714 17.3234 13.7493 17.3561L11.7301 20.3447C11.7284 20.3472 11.7266 20.3497 11.7249 20.3522C11.4316 20.772 10.8965 21.5 9.98211 21.5C9.16209 21.5 8.63802 20.9012 8.34206 20.5519L2.54171 14.123C2.53461 14.1151 2.52773 14.107 2.52108 14.0988L2.4035 13.9532C2.39956 13.9484 2.3957 13.9434 2.39192 13.9384C2.12369 13.5835 1.98577 13.1468 2.00116 12.7019C2.00337 12.2115 2.19772 11.7414 2.54259 11.3932C2.89043 11.042 3.36299 10.8435 3.85658 10.8413L3.85921 10.8413C4.48187 10.8413 4.94503 11.1718 5.26272 11.4879L9.52912 15.2083L11.0997 13.2131L11.0999 13.2128L18.7804 3.44562C19.0719 3.01644 19.5191 2.50051 20.2903 2.50001ZM12.7305 16.7877C12.7433 16.7584 12.7587 16.7298 12.7768 16.7021L20.63 4.65895C20.6314 4.65686 20.6327 4.65479 20.6341 4.65272C20.8054 4.39725 20.8387 4.31133 20.8387 4.20901C20.8387 4.13734 20.8246 4.06637 20.7972 4.00018C20.7698 3.93398 20.7296 3.87387 20.679 3.82329C20.6283 3.77271 20.5682 3.73265 20.5021 3.70541C20.436 3.67818 20.3652 3.6643 20.2937 3.66458L20.2915 3.66458C20.1279 3.66458 19.9819 3.74199 19.7304 4.11558C19.7224 4.12747 19.714 4.13906 19.7051 4.15033L12.0116 13.9342L12.0114 13.9344L10.0633 16.4091C9.96496 16.5341 9.81983 16.6132 9.66175 16.6281C9.50366 16.6429 9.3464 16.5922 9.22659 16.4877L4.48562 12.3535C4.47506 12.3443 4.46483 12.3347 4.45495 12.3247C4.23351 12.1015 4.04585 12.0063 3.86046 12.0058C3.6749 12.007 3.49732 12.0818 3.36653 12.2139C3.23541 12.3463 3.16201 12.5254 3.16243 12.712C3.16245 12.7204 3.16229 12.7289 3.16194 12.7373C3.1547 12.9136 3.20793 13.0869 3.31262 13.2286L3.41349 13.3534L9.20929 19.7774C9.21337 19.7819 9.21738 19.7865 9.22131 19.7911C9.54774 20.1766 9.75376 20.3354 9.98211 20.3354C10.2284 20.3354 10.4476 20.1502 10.7713 19.6876L12.7305 16.7877Z" fill="#333333"/>
</svg>
