<svg width="24" height="24" viewBox="0 0 24 24" fill="none" xmlns="http://www.w3.org/2000/svg">
<path fill-rule="evenodd" clip-rule="evenodd" d="M11.2 10.2C11.2 9.86864 11.4686 9.60001 11.8 9.60001H16.6C16.9313 9.60001 17.2 9.86864 17.2 10.2C17.2 10.5314 16.9313 10.8 16.6 10.8H11.8C11.4686 10.8 11.2 10.5314 11.2 10.2Z" fill="#333333"/>
<path fill-rule="evenodd" clip-rule="evenodd" d="M7.59998 10.2C7.59998 9.86864 7.8686 9.60001 8.19998 9.60001H9.39998C9.73135 9.60001 9.99998 9.86864 9.99998 10.2C9.99998 10.5314 9.73135 10.8 9.39998 10.8H8.19998C7.8686 10.8 7.59998 10.5314 7.59998 10.2Z" fill="#333333"/>
<path fill-rule="evenodd" clip-rule="evenodd" d="M11.2 13.8C11.2 13.4686 11.4686 13.2 11.8 13.2H16.6C16.9313 13.2 17.2 13.4686 17.2 13.8C17.2 14.1314 16.9313 14.4 16.6 14.4H11.8C11.4686 14.4 11.2 14.1314 11.2 13.8Z" fill="#333333"/>
<path fill-rule="evenodd" clip-rule="evenodd" d="M7.59998 13.8C7.59998 13.4686 7.8686 13.2 8.19998 13.2H9.39998C9.73135 13.2 9.99998 13.4686 9.99998 13.8C9.99998 14.1314 9.73135 14.4 9.39998 14.4H8.19998C7.8686 14.4 7.59998 14.1314 7.59998 13.8Z" fill="#333333"/>
<path fill-rule="evenodd" clip-rule="evenodd" d="M11.2 17.4C11.2 17.0686 11.4686 16.8 11.8 16.8H16.6C16.9313 16.8 17.2 17.0686 17.2 17.4C17.2 17.7314 16.9313 18 16.6 18H11.8C11.4686 18 11.2 17.7314 11.2 17.4Z" fill="#333333"/>
<path fill-rule="evenodd" clip-rule="evenodd" d="M7.59998 17.4C7.59998 17.0686 7.8686 16.8 8.19998 16.8H9.39998C9.73135 16.8 9.99998 17.0686 9.99998 17.4C9.99998 17.7314 9.73135 18 9.39998 18H8.19998C7.8686 18 7.59998 17.7314 7.59998 17.4Z" fill="#333333"/>
<path fill-rule="evenodd" clip-rule="evenodd" d="M4.70294 0.702944C5.15303 0.252856 5.76348 0 6.4 0H15.4C15.5591 0 15.7117 0.0632141 15.8243 0.175736L20.6243 4.97574C20.7368 5.08826 20.8 5.24087 20.8 5.4V21.6C20.8 22.2365 20.5471 22.847 20.0971 23.2971C19.647 23.7471 19.0365 24 18.4 24H6.4C5.76348 24 5.15303 23.7471 4.70294 23.2971C4.25286 22.847 4 22.2365 4 21.6V2.4C4 1.76348 4.25286 1.15303 4.70294 0.702944ZM6.4 1.2C6.08174 1.2 5.77652 1.32643 5.55147 1.55147C5.32643 1.77652 5.2 2.08174 5.2 2.4V21.6C5.2 21.9183 5.32643 22.2235 5.55147 22.4485C5.77652 22.6736 6.08174 22.8 6.4 22.8H18.4C18.7183 22.8 19.0235 22.6736 19.2485 22.4485C19.4736 22.2235 19.6 21.9183 19.6 21.6V5.64853L15.1515 1.2H6.4Z" fill="#333333"/>
<path fill-rule="evenodd" clip-rule="evenodd" d="M14.8 5.39999V0.634491H16V4.79999H20.2V5.99999H15.4C15.0687 5.99999 14.8 5.73136 14.8 5.39999Z" fill="#333333"/>
</svg>
